<?xml version="1.0" ?>
<svg height="64" viewBox="0 0 64 64" width="64" xmlns="http://www.w3.org/2000/svg">
    <title />
    <g>
        <path
            d="M50.447,30.991l-2.071-2.07L46.859,27.4l-.545-.545a1.426,1.426,0,0,1-.417-1.008V19.53A1.427,1.427,0,0,0,44.47,18.1H38.149a1.426,1.426,0,0,1-1.008-.417l-4.132-4.133a1.427,1.427,0,0,0-2.018,0l-3.423,3.423-.709.71a1.452,1.452,0,0,1-.188.154,1.427,1.427,0,0,1-.82.263H19.53A1.427,1.427,0,0,0,18.1,19.53v6.321a1.42,1.42,0,0,1-.313.881,1.4,1.4,0,0,1-.1.127l-3.28,3.279-.853.853a1.427,1.427,0,0,0,0,2.018l4.133,4.132a1.426,1.426,0,0,1,.417,1.008V44.47A1.427,1.427,0,0,0,19.53,45.9h6.321a1.426,1.426,0,0,1,1.008.417l4.132,4.133a1.427,1.427,0,0,0,2.018,0l1.68-1.681,2.452-2.452a1.426,1.426,0,0,1,1.008-.417H44.47A1.445,1.445,0,0,0,45.9,44.47V38.149a1.426,1.426,0,0,1,.417-1.008l4.133-4.132A1.427,1.427,0,0,0,50.447,30.991Z"
            fill="#e6f4e9" />
        <g>
            <path
                d="M30.991,50.447l-4.132-4.133a1.426,1.426,0,0,0-1.008-.417H19.53A1.427,1.427,0,0,1,18.1,44.47V38.149a1.426,1.426,0,0,0-.417-1.008l-4.133-4.132a1.427,1.427,0,0,1,0-2.018l.853-.853,3.28-3.279a1.4,1.4,0,0,0,.1-.127,1.42,1.42,0,0,0,.313-.881V19.53A1.427,1.427,0,0,1,19.53,18.1h6.321a1.427,1.427,0,0,0,.82-.263,1.452,1.452,0,0,0,.188-.154l.709-.71,3.423-3.423A1.425,1.425,0,0,1,32,13.136V6.425a1.925,1.925,0,0,0-1.367.567l-5.6,5.6a2.02,2.02,0,0,1-1.367.566H15.094a1.934,1.934,0,0,0-1.934,1.934v8.569a1.927,1.927,0,0,1-.425,1.2,1.791,1.791,0,0,1-.141.172l-5.6,5.6a1.931,1.931,0,0,0,0,2.734l5.6,5.6a1.934,1.934,0,0,1,.566,1.367v8.569a1.934,1.934,0,0,0,1.934,1.934h8.569a1.934,1.934,0,0,1,1.367.566l5.6,5.6A1.925,1.925,0,0,0,32,57.575V50.864A1.425,1.425,0,0,1,30.991,50.447Z"
                fill="#2aab48" />
            <path
                d="M38.97,51.406a1.934,1.934,0,0,1,1.367-.566h8.569a1.957,1.957,0,0,0,1.934-1.934V40.337a1.934,1.934,0,0,1,.566-1.367l5.6-5.6a1.931,1.931,0,0,0,0-2.734L54.2,27.826l-2.8-2.8a1.934,1.934,0,0,1-.566-1.367V15.094a1.934,1.934,0,0,0-1.934-1.934H40.337a1.934,1.934,0,0,1-1.367-.566l-5.6-5.6A1.925,1.925,0,0,0,32,6.425v6.711a1.425,1.425,0,0,1,1.009.417l4.132,4.133a1.426,1.426,0,0,0,1.008.417H44.47A1.427,1.427,0,0,1,45.9,19.53v6.321a1.426,1.426,0,0,0,.417,1.008l.545.545,1.517,1.517,2.071,2.07a1.427,1.427,0,0,1,0,2.018l-4.133,4.132a1.426,1.426,0,0,0-.417,1.008V44.47A1.445,1.445,0,0,1,44.47,45.9H38.149a1.426,1.426,0,0,0-1.008.417l-2.452,2.452-1.68,1.681A1.425,1.425,0,0,1,32,50.864v6.711a1.925,1.925,0,0,0,1.367-.567Z"
                fill="#5fc076" />
            <path
                d="M27.568,16.976l-.709.71a1.452,1.452,0,0,1-.188.154,1.427,1.427,0,0,1-.82.263H19.53A1.427,1.427,0,0,0,18.1,19.53v6.321a1.42,1.42,0,0,1-.313.881,1.4,1.4,0,0,1-.1.127l-3.28,3.279-.853.853a1.427,1.427,0,0,0,0,2.018l4.133,4.132a1.426,1.426,0,0,1,.417,1.008V44.47A1.427,1.427,0,0,0,19.53,45.9h6.321a1.426,1.426,0,0,1,1.008.417l4.132,4.133A1.425,1.425,0,0,0,32,50.864V13.136a1.425,1.425,0,0,0-1.009.417Z"
                fill="#caead1" />
        </g>
        <g>
            <g>
                <path
                    d="M30.924,30.013v9.816A2.356,2.356,0,0,1,28.419,42a2.355,2.355,0,0,1-2.5-2.171V30.013s-4.1,1.107-4.1,2.653c0,1.767,3.775,1.439,3.775,1.439"
                    fill="none" stroke="#231f20" stroke-linecap="round" stroke-linejoin="round" stroke-width="2" />
                <path d="M35.934,30.013v9.816a2.531,2.531,0,0,1-5.01,0V30.013" fill="none" stroke="#231f20"
                    stroke-linecap="round" stroke-linejoin="round" stroke-width="2" />
                <line fill="none" stroke="#231f20" stroke-linecap="round" stroke-linejoin="round" stroke-width="2"
                    x1="40.187" x2="40.187" y1="30.013" y2="41.951" />
            </g>
            <g>
                <path d="M30.924,24.108v1.848a1.488,1.488,0,0,1-2.924,0V24.108" fill="none" stroke="#231f20"
                    stroke-linecap="round" stroke-linejoin="round" stroke-width="2" />
                <path d="M33.848,24.108v1.848a1.488,1.488,0,0,1-2.924,0V24.108" fill="none" stroke="#231f20"
                    stroke-linecap="round" stroke-linejoin="round" stroke-width="2" />
            </g>
            <path d="M30.794,19.5a1.744,1.744,0,0,0,0,1.765" fill="none" stroke="#231f20" stroke-linecap="round"
                stroke-linejoin="round" stroke-width="2" />
        </g>
        <path
            d="M51.406,38.97l5.6-5.6a1.931,1.931,0,0,0,0-2.734l-5.6-5.6a1.934,1.934,0,0,1-.566-1.367V15.094a1.934,1.934,0,0,0-1.934-1.934H40.337a1.934,1.934,0,0,1-1.367-.566l-5.6-5.6a1.931,1.931,0,0,0-2.734,0l-5.6,5.6a1.934,1.934,0,0,1-1.367.566H15.094a1.934,1.934,0,0,0-1.934,1.934v8.569a1.934,1.934,0,0,1-.566,1.367l-5.6,5.6a1.931,1.931,0,0,0,0,2.734l5.6,5.6a1.934,1.934,0,0,1,.566,1.367v8.569a1.934,1.934,0,0,0,1.934,1.934h8.569a1.934,1.934,0,0,1,1.367.566l5.6,5.6a1.931,1.931,0,0,0,2.734,0l5.6-5.6a1.934,1.934,0,0,1,1.367-.566h8.569a1.934,1.934,0,0,0,1.934-1.934V40.337A1.934,1.934,0,0,1,51.406,38.97Z"
            fill="none" stroke="#231f20" stroke-linecap="round" stroke-linejoin="round" stroke-width="2" />
        <path
            d="M50.447,30.991l-2.071-2.07L46.859,27.4l-.545-.545a1.426,1.426,0,0,1-.417-1.008V19.53A1.427,1.427,0,0,0,44.47,18.1H38.149a1.426,1.426,0,0,1-1.008-.417l-4.132-4.133a1.427,1.427,0,0,0-2.018,0l-3.423,3.423-.709.71a1.452,1.452,0,0,1-.188.154,1.427,1.427,0,0,1-.82.263H19.53A1.427,1.427,0,0,0,18.1,19.53v6.321a1.42,1.42,0,0,1-.313.881,1.4,1.4,0,0,1-.1.127l-3.28,3.279-.853.853a1.427,1.427,0,0,0,0,2.018l4.133,4.132a1.426,1.426,0,0,1,.417,1.008V44.47A1.427,1.427,0,0,0,19.53,45.9h6.321a1.426,1.426,0,0,1,1.008.417l4.132,4.133a1.427,1.427,0,0,0,2.018,0l1.68-1.681,2.452-2.452a1.426,1.426,0,0,1,1.008-.417H44.47A1.445,1.445,0,0,0,45.9,44.47V38.149a1.426,1.426,0,0,1,.417-1.008l4.133-4.132A1.427,1.427,0,0,0,50.447,30.991Z"
            fill="none" stroke="#231f20" stroke-linecap="round" stroke-linejoin="round" stroke-width="2" />
    </g>
</svg>