<?xml version="1.0" ?>
<svg data-name="Layer 1" id="Layer_1" viewBox="0 0 64 64" xmlns="http://www.w3.org/2000/svg">
    <title />
    <polyline points="17 45 17 61 13 61 13 45" style="fill:#b6ccfe" />
    <path d="M23,27h4v6A12,12,0,0,1,3,33V27H7" style="fill:#bdb2ff" />
    <rect height="30" rx="8" style="fill:#a0c4ff" width="16" x="7" y="8" />
    <path d="M19,9.08V15a2.006,2.006,0,0,1-2,2H13a2.006,2.006,0,0,1-2-2V9.08" style="fill:#9bf6ff" />
    <path d="M35,8h4a0,0,0,0,1,0,0v8a0,0,0,0,1,0,0H35a2,2,0,0,1-2-2V10A2,2,0,0,1,35,8Z" style="fill:#ffadad" />
    <path d="M49,5h0a4,4,0,0,1,4,4v6a4,4,0,0,1-4,4h0" style="fill:#fdffb6" />
    <path d="M39,9h0a9.656,9.656,0,0,0,6.828-2.828L49,3V21l-3.172-3.172A9.656,9.656,0,0,0,39,15h0"
        style="fill:#abc4ff" />
    <path
        d="M54,9a5.009,5.009,0,0,0-4-4.9V3a1,1,0,0,0-1.707-.707L45.122,5.465a8.593,8.593,0,0,1-5.134,2.474A.993.993,0,0,0,39,7H35a3,3,0,0,0-3,3v4a3,3,0,0,0,3,3v4H27a1,1,0,0,0-1,1v4H24V16A9,9,0,0,0,6,16V26H3a1,1,0,0,0-1,1v6A13.014,13.014,0,0,0,12,45.637V61a1,1,0,0,0,1,1h4a1,1,0,0,0,1-1V45.637A13.014,13.014,0,0,0,28,33V23h8a1,1,0,0,0,1-1V17h2a.993.993,0,0,0,.988-.939,8.593,8.593,0,0,1,5.134,2.474l3.171,3.172A1,1,0,0,0,49,22a.987.987,0,0,0,.383-.076A1,1,0,0,0,50,21V19.9A5.009,5.009,0,0,0,54,15ZM16,9.08a6.937,6.937,0,0,1,2,.605V15a1,1,0,0,1-1,1H16Zm-4,.605a6.937,6.937,0,0,1,2-.605V16H13a1,1,0,0,1-1-1ZM8,16a6.971,6.971,0,0,1,2-4.889V15a3,3,0,0,0,3,3h4a3,3,0,0,0,3-3V11.111A6.971,6.971,0,0,1,22,16v6H8Zm0,8H22v6A7,7,0,0,1,8,30Zm8,36H14V45.949c.331.026.662.051,1,.051s.669-.025,1-.051ZM26,33A11,11,0,0,1,4,33V28H6v2a9,9,0,0,0,18,0V28h2ZM38,15H35a1,1,0,0,1-1-1V10a1,1,0,0,1,1-1h3Zm10,3.586-1.464-1.465A10.576,10.576,0,0,0,40,14.049v-4.1a10.576,10.576,0,0,0,6.536-3.072L48,5.414ZM52,15a3,3,0,0,1-2,2.816V6.184A3,3,0,0,1,52,9Z" />
    <path d="M61,11H57a1,1,0,0,0,0,2h4a1,1,0,0,0,0-2Z" />
    <path d="M58.293,15.465a1,1,0,0,0-1.414,1.414l2.828,2.828a1,1,0,0,0,1.414-1.414Z" />
    <path d="M58.293,8.121l2.828-2.828a1,1,0,0,0-1.414-1.414L56.879,6.707a1,1,0,1,0,1.414,1.414Z" />
</svg>